<?xml version="1.0" encoding="UTF-8"?>
<svg width="110px" height="110px" viewBox="0 0 110 110" version="1.1" xmlns="http://www.w3.org/2000/svg" xmlns:xlink="http://www.w3.org/1999/xlink">
    <!-- Generator: Sketch 47 (45396) - http://www.bohemiancoding.com/sketch -->
    <title>Group 4</title>
    <desc>Created with Sketch.</desc>
    <defs></defs>
    <g id="Page-1" stroke="none" stroke-width="1" fill="none" fill-rule="evenodd">
        <g id="020_AryaAnon_icon_1" transform="translate(-4.000000, -4.000000)">
            <g id="Group-4" transform="translate(5.000000, 5.000000)">
                <g id="Group-3" stroke="#F29A0C">
                    <g id="Group-2">
                        <g id="Group">
                            <circle id="Oval-2" cx="50" cy="50" r="50"></circle>
                        </g>
                    </g>
                </g>
                <path d="M55.3,48.66 C60.1,47.1 62.98,43.32 62.98,38.34 C62.98,31.86 58.12,27 50.56,27 C44.02,27 39.76,30.72 37.78,35.94 L42.58,38.46 C44.08,34.5 46.54,31.98 50.44,31.98 C54.52,31.98 57.22,34.44 57.22,38.82 C57.22,43.86 53.74,46.38 49.48,46.38 L47.44,46.38 L47.44,51.06 L49.42,51.06 C53.92,51.06 58.06,53.22 58.06,59.04 C58.06,64.32 54.52,67.26 50.26,67.26 C46.84,67.26 43.18,65.28 41.92,60.72 L37,63.72 C39.1,69.42 44.2,72.24 50.44,72.24 C59.08,72.24 64,66.72 64,59.52 C64,53.94 60.7,49.98 55.3,48.66 Z" id="3-copy" fill="#727579"></path>
            </g>
        </g>
    </g>
</svg>